<?xml version="1.0" encoding="utf-8"?>
<!-- Generator: Adobe Illustrator 23.0.1, SVG Export Plug-In . SVG Version: 6.00 Build 0)  -->
<svg version="1.1" id="Capa_1" xmlns="http://www.w3.org/2000/svg" xmlns:xlink="http://www.w3.org/1999/xlink" x="0px" y="0px"
	 viewBox="0 0 973.1 648.7" style="enable-background:new 0 0 973.1 648.7;" xml:space="preserve">
<style type="text/css">
	.st0{display:none;}
	.st1{display:inline;}
	.st2{fill:#FF7BAC;}
	.st3{clip-path:url(#traje_5_);}
	.st4{fill-rule:evenodd;clip-rule:evenodd;fill:#FF7A80;}
	.st5{fill-rule:evenodd;clip-rule:evenodd;fill:#00B4B6;}
	.st6{fill-rule:evenodd;clip-rule:evenodd;fill:#20246E;}
	.st7{fill-rule:evenodd;clip-rule:evenodd;fill:#FFB117;}
	.st8{fill-rule:evenodd;clip-rule:evenodd;fill:#1A1B6B;}
	.st9{clip-path:url(#SVGID_2_);}
	.st10{fill-rule:evenodd;clip-rule:evenodd;fill:#201F80;}
</style>
<g>
	<g>
		<path d="M240.8,280.4h-76.7v-21h108.6v17.9l-79,96.3v0.6h80.2v21.2H161.6v-17.7l79.2-96.7V280.4z"/>
		<path d="M404.4,376.6c-13.8,13.4-30.7,20.1-51,20.1c-20.2,0-37.2-6.7-51-20.1c-13.8-13.4-20.6-30.2-20.6-50.2
			c0-20,6.9-36.8,20.6-50.2c13.7-13.4,30.7-20.1,51-20.1c20.2,0,37.2,6.7,51,20.1c13.7,13.4,20.6,30.2,20.6,50.2
			C425.1,346.4,418.2,363.1,404.4,376.6z M387.6,291.4c-9.3-9.6-20.7-14.4-34.1-14.4c-13.5,0-24.9,4.8-34.1,14.4
			c-9.3,9.6-13.9,21.2-13.9,34.9c0,13.7,4.6,25.3,13.9,34.9c9.3,9.6,20.7,14.4,34.1,14.4c13.5,0,24.9-4.8,34.1-14.4
			c9.3-9.6,13.9-21.2,13.9-34.9C401.5,312.7,396.9,301,387.6,291.4z"/>
		<path d="M558.2,376.6c-13.8,13.4-30.7,20.1-51,20.1c-20.2,0-37.2-6.7-51-20.1c-13.8-13.4-20.6-30.2-20.6-50.2
			c0-20,6.9-36.8,20.6-50.2c13.7-13.4,30.7-20.1,51-20.1c20.2,0,37.2,6.7,51,20.1c13.7,13.4,20.6,30.2,20.6,50.2
			C578.8,346.4,571.9,363.1,558.2,376.6z M541.3,291.4c-9.3-9.6-20.7-14.4-34.1-14.4c-13.5,0-24.9,4.8-34.1,14.4
			c-9.3,9.6-13.9,21.2-13.9,34.9c0,13.7,4.6,25.3,13.9,34.9c9.3,9.6,20.7,14.4,34.1,14.4c13.5,0,24.9-4.8,34.1-14.4
			c9.3-9.6,13.9-21.2,13.9-34.9C555.2,312.7,550.6,301,541.3,291.4z"/>
		<path d="M621,395.3h-23v-136h35.8l41.1,85.4l41.1-85.4h35.6v136h-23V289.1l-47.5,94.4h-12.8L621,289.1L621,395.3L621,395.3z"/>
	</g>
	<g>
		<path d="M771.4,387.4c-2.6-3.6-3.9-8.5-3.9-14.5c0-6.1,1.3-10.9,3.9-14.5c2.6-3.6,6.5-5.4,11.8-5.4c5.3,0,9.2,1.8,11.8,5.4
			c2.6,3.6,3.9,8.5,3.9,14.5c0,6.1-1.3,10.9-3.9,14.5c-2.6,3.6-6.5,5.4-11.8,5.4S774,391.1,771.4,387.4z M776.1,362.5
			c-1.5,2.6-2.3,6.1-2.3,10.4c0,4.3,0.8,7.8,2.3,10.4c1.5,2.6,3.9,4,7.1,4c3.2,0,5.6-1.3,7.1-3.9c1.5-2.6,2.2-6.1,2.2-10.5
			c0-4.3-0.7-7.8-2.2-10.5c-1.5-2.6-3.9-3.9-7.1-3.9C780,358.5,777.6,359.8,776.1,362.5z"/>
		<path d="M801.5,353.9h14v38.6h-6.2v-32.8h-7.8L801.5,353.9L801.5,353.9z"/>
	</g>
</g>
<g class="st0">
	<g id="traje_1_" class="st1">
		<path id="traje_4_" class="st2" d="M-459-772.8L1297.1,31.4c8.2,4.5,14.2,5,16.9,16.3l61.4,1055.7l-47,81.4L325,1228.6
			c-9.1,0.4-16.1,0.1-27.8-6.2l-812-449c-17.2-9.3-20.7-19.3-20.7-38.9l-3.6-1468C-537.3-795.8-520.2-802.6-459-772.8z"/>
	</g>
	<g class="st1">
		<defs>
			<path id="traje_2_" d="M-456.3-769.8L1294.5,31.9c8.2,4.5,14.1,5,16.9,16.3l61.3,1052.5l-46.8,81.1l-1000.5,43.7
				c-9.1,0.4-16.1,0.1-27.7-6.2L-512,771.7c-17.1-9.3-20.6-19.2-20.6-38.8l-3.6-1463.6C-534.4-792.7-517.4-799.5-456.3-769.8z"/>
		</defs>
		<clipPath id="traje_5_">
			<use xlink:href="#traje_2_"  style="overflow:visible;"/>
		</clipPath>
		<g class="st3">
			<path class="st4" d="M288-413.5C304-215.5,405-45.9,437.7,1c33.6,48.2,71.4,93.3,118.8,128.6c108,80.4,238.4,97.8,368.8,103.5
				c107.5,4.7,212.5-3.1,314.8-38.3c220-75.7,357.3-264.7,371.1-495.3c4.6-77.1-2.7-152.9-22.1-227.7
				c-77-295.8-368.8-575.3-685.7-563.4c-124.4,4.7-237.7,70.9-332.7,146.4C400.7-810,270.1-635.2,288-413.5z"/>
			<path class="st5" d="M224,1158.9C365.2,850.7,310.3,472,558.7,210.1c161.6-170.5,402.5-191.3,610.1-91.3
				c80.3,38.7,153.5,109.1,212.4,175.1c99.5,111.5,173.1,271,84.9,456.7c-43.7,91.8-173.3,245.9-226,299.2
				c-142.3,144.1-121.6,277.1-132,417.9"/>
			<path class="st6" d="M-50.7,802.1c77,0,139.5,62.5,139.5,139.5c0,77-62.5,139.5-139.5,139.5c-77,0-139.5-62.5-139.5-139.5
				C-190.2,864.6-127.7,802.1-50.7,802.1z"/>
			<path class="st7" d="M-378.7,647.6C-203.3,699.8-48.2,750.8-27.3,871c35.8,206,14.7,466.3,248.6,567
				c39.2,16.9,84.9,24.6,127.5,21.7c251.5-17,358.9-294.6,371-510.8C735,676.9,617.7,409,442.9,206.2
				C343.3,90.6,203.3-2.1,49.2-20.8C-165.1-46.7-397.9,41.6-497.7,240C-578.9,401.4-559.3,593.9-378.7,647.6z"/>
			<g>
				<path class="st6" d="M361.9,839.6c8.6,0,15.6,7,15.6,15.6s-7,15.6-15.6,15.6c-8.6,0-15.6-7-15.6-15.6S353.3,839.6,361.9,839.6z"
					/>
				<path class="st6" d="M430.1,839.6c8.6,0,15.6,7,15.6,15.6s-7,15.6-15.6,15.6c-8.6,0-15.6-7-15.6-15.6S421.5,839.6,430.1,839.6z"
					/>
				<ellipse class="st6" cx="498.4" cy="855.1" rx="15.6" ry="15.6"/>
				<path class="st6" d="M566.6,839.6c8.6,0,15.6,7,15.6,15.6s-7,15.6-15.6,15.6c-8.6,0-15.6-7-15.6-15.6S558,839.6,566.6,839.6z"/>
				<ellipse class="st6" cx="634.9" cy="855.1" rx="15.6" ry="15.6"/>
				<path class="st6" d="M703.1,839.6c8.6,0,15.6,7,15.6,15.6s-7,15.6-15.6,15.6c-8.6,0-15.6-7-15.6-15.6S694.6,839.6,703.1,839.6z"
					/>
				<path class="st6" d="M771.4,839.6c8.6,0,15.6,7,15.6,15.6s-7,15.6-15.6,15.6c-8.6,0-15.6-7-15.6-15.6S762.8,839.6,771.4,839.6z"
					/>
				<path class="st6" d="M839.7,839.6c8.6,0,15.6,7,15.6,15.6s-7,15.6-15.6,15.6c-8.6,0-15.6-7-15.6-15.6S831.1,839.6,839.7,839.6z"
					/>
				<path class="st6" d="M907.9,839.6c8.6,0,15.6,7,15.6,15.6s-7,15.6-15.6,15.6c-8.6,0-15.6-7-15.6-15.6S899.3,839.6,907.9,839.6z"
					/>
				<ellipse class="st6" cx="976.2" cy="855.1" rx="15.6" ry="15.6"/>
				<path class="st6" d="M1044.4,839.6c8.6,0,15.6,7,15.6,15.6s-7,15.6-15.6,15.6c-8.6,0-15.6-7-15.6-15.6
					S1035.9,839.6,1044.4,839.6z"/>
				<path class="st6" d="M1112.7,839.6c8.6,0,15.6,7,15.6,15.6s-7,15.6-15.6,15.6c-8.6,0-15.6-7-15.6-15.6
					S1104.1,839.6,1112.7,839.6z"/>
				<path class="st6" d="M1181,839.6c8.6,0,15.6,7,15.6,15.6s-7,15.6-15.6,15.6c-8.6,0-15.6-7-15.6-15.6S1172.4,839.6,1181,839.6z"
					/>
				<path class="st6" d="M1249.2,839.6c8.6,0,15.6,7,15.6,15.6s-7,15.6-15.6,15.6c-8.6,0-15.6-7-15.6-15.6
					S1240.6,839.6,1249.2,839.6z"/>
				<path class="st6" d="M1317.5,839.6c8.6,0,15.6,7,15.6,15.6s-7,15.6-15.6,15.6c-8.6,0-15.6-7-15.6-15.6
					S1308.9,839.6,1317.5,839.6z"/>
				<ellipse class="st6" cx="1385.7" cy="855.1" rx="15.6" ry="15.6"/>
			</g>
			<g>
				<path class="st6" d="M395.8,882c8.6,0,15.6,7,15.6,15.6c0,8.6-7,15.6-15.6,15.6c-8.6,0-15.6-7-15.6-15.6
					C380.3,889,387.3,882,395.8,882z"/>
				<path class="st6" d="M464.1,882c8.6,0,15.6,7,15.6,15.6c0,8.6-7,15.6-15.6,15.6c-8.6,0-15.6-7-15.6-15.6
					C448.5,889,455.5,882,464.1,882z"/>
				<path class="st6" d="M532.4,882c8.6,0,15.6,7,15.6,15.6c0,8.6-7,15.6-15.6,15.6c-8.6,0-15.6-7-15.6-15.6
					C516.8,889,523.8,882,532.4,882z"/>
				<path class="st6" d="M600.6,882c8.6,0,15.6,7,15.6,15.6c0,8.6-7,15.6-15.6,15.6c-8.6,0-15.6-7-15.6-15.6
					C585.1,889,592,882,600.6,882z"/>
				<path class="st6" d="M668.9,882c8.6,0,15.6,7,15.6,15.6c0,8.6-7,15.6-15.6,15.6c-8.6,0-15.6-7-15.6-15.6
					C653.3,889,660.3,882,668.9,882z"/>
				<path class="st6" d="M737.1,882c8.6,0,15.6,7,15.6,15.6c0,8.6-7,15.6-15.6,15.6c-8.6,0-15.6-7-15.6-15.6
					C721.6,889,728.6,882,737.1,882z"/>
				<path class="st6" d="M805.4,882c8.6,0,15.6,7,15.6,15.6c0,8.6-7,15.6-15.6,15.6c-8.6,0-15.6-7-15.6-15.6
					C789.8,889,796.8,882,805.4,882z"/>
				<path class="st6" d="M873.7,882c8.6,0,15.6,7,15.6,15.6c0,8.6-7,15.6-15.6,15.6c-8.6,0-15.6-7-15.6-15.6
					C858.1,889,865.1,882,873.7,882z"/>
				<path class="st6" d="M941.9,882c8.6,0,15.6,7,15.6,15.6c0,8.6-7,15.6-15.6,15.6c-8.6,0-15.6-7-15.6-15.6
					C926.4,889,933.3,882,941.9,882z"/>
				<path class="st6" d="M1010.2,882c8.6,0,15.6,7,15.6,15.6c0,8.6-7,15.6-15.6,15.6s-15.6-7-15.6-15.6
					C994.6,889,1001.6,882,1010.2,882z"/>
				<path class="st6" d="M1078.4,882c8.6,0,15.6,7,15.6,15.6c0,8.6-7,15.6-15.6,15.6c-8.6,0-15.6-7-15.6-15.6
					C1062.9,889,1069.8,882,1078.4,882z"/>
				<path class="st6" d="M1146.7,882c8.6,0,15.6,7,15.6,15.6c0,8.6-7,15.6-15.6,15.6c-8.6,0-15.6-7-15.6-15.6
					C1131.1,889,1138.1,882,1146.7,882z"/>
				<path class="st6" d="M1215,882c8.6,0,15.6,7,15.6,15.6c0,8.6-7,15.6-15.6,15.6c-8.6,0-15.6-7-15.6-15.6
					C1199.4,889,1206.4,882,1215,882z"/>
				<path class="st6" d="M1283.2,882c8.6,0,15.6,7,15.6,15.6c0,8.6-7,15.6-15.6,15.6c-8.6,0-15.6-7-15.6-15.6
					C1267.7,889,1274.6,882,1283.2,882z"/>
				<path class="st6" d="M1351.5,882c8.6,0,15.6,7,15.6,15.6c0,8.6-7,15.6-15.6,15.6c-8.6,0-15.6-7-15.6-15.6
					C1335.9,889,1342.9,882,1351.5,882z"/>
			</g>
			<path class="st8" d="M849.2,564c0,0,15.8-30.4,44-52.8c18.3-14.5,42.1-25.6,70.4-22c29.6,3.8,44.8,23.5,61.3,42.1
				c18.7,21,38.8,41,77.1,42.1c37.5,1.1,56.9-18.3,76.6-38.7c17.4-18,35.1-36.9,70.1-38.1c23.1-0.8,41.8,11.3,56.1,25.8
				c22.3,22.7,34,51.6,34,51.6l2.5,6.2l12.4-5l-2.5-6.2c0,0-12.6-31.3-36.8-55.9c-16.8-17-39-30.7-66.1-29.8
				c-39.4,1.3-59.7,21.9-79.2,42.2c-17.2,17.9-33.8,35.6-66.6,34.6c-33.7-1-51.1-19.1-67.5-37.6c-18.6-20.9-36.3-42.3-69.6-46.5
				c-32.2-4.1-59.4,8.2-80.3,24.8c-30.6,24.2-47.6,57.1-47.6,57.1l-3.1,5.9l11.9,6.1L849.2,564z"/>
			<path class="st6" d="M547.9,69.8c111.9,0,202.7,90.8,202.7,202.7c0,111.9-90.8,202.7-202.7,202.7
				c-111.9,0-202.7-90.8-202.7-202.7C345.2,160.7,436.1,69.8,547.9,69.8z"/>
			<path class="st8" d="M153.4-207.2c0,0,15.8-30.4,44-52.8c18.3-14.5,42.1-25.6,70.4-22c29.6,3.8,44.8,23.5,61.3,42.1
				c18.7,21,38.8,41,77.1,42.1c37.5,1.1,56.9-18.3,76.6-38.7c17.4-18,35.1-36.9,70.1-38.1c23.1-0.8,41.8,11.3,56.1,25.8
				c22.3,22.7,34,51.6,34,51.6l2.5,6.2l12.4-5l-2.5-6.2c0,0-12.6-31.3-36.8-55.9c-16.8-17-39-30.7-66.1-29.8
				c-39.4,1.3-59.7,21.9-79.2,42.2C456-227.8,439.5-210,406.7-211c-33.7-1-51.1-19.1-67.5-37.6c-18.6-20.9-36.3-42.3-69.6-46.5
				c-32.2-4.1-59.4,8.2-80.3,24.8c-30.6,24.2-47.6,57.1-47.6,57.1l-3.1,5.9l11.9,6.1L153.4-207.2z"/>
			<path class="st8" d="M445-85.7c0,0,15.8-30.4,44-52.8c18.3-14.5,42.1-25.6,70.4-22c29.6,3.8,44.8,23.5,61.3,42.1
				c18.7,21,38.8,41,77.1,42.1c37.5,1.1,56.9-18.3,76.6-38.7c17.4-18,35.1-36.9,70.1-38.1c23.1-0.8,41.8,11.3,56.1,25.8
				c22.3,22.7,34,51.6,34,51.6l2.5,6.2l12.4-5l-2.5-6.2c0,0-12.6-31.3-36.8-55.9c-16.8-17-39-30.7-66.1-29.8
				c-39.4,1.3-59.7,21.9-79.2,42.2c-17.2,17.9-33.8,35.6-66.6,34.6c-33.7-1-51.1-19.1-67.5-37.6c-18.6-20.9-36.3-42.3-69.6-46.5
				c-32.2-4.1-59.4,8.2-80.3,24.8c-30.6,24.2-47.6,57.1-47.6,57.1l-3.1,5.9l11.9,6.1L445-85.7z"/>
		</g>
		<g class="st3">
			<defs>
				<rect id="SVGID_1_" x="-371.8" y="-258" width="422.5" height="422.5"/>
			</defs>
			<clipPath id="SVGID_2_">
				<use xlink:href="#SVGID_1_"  style="overflow:visible;"/>
			</clipPath>
			<g class="st9">
				<g>
					
						<rect x="-348.4" y="-161.4" transform="matrix(0.7067 -0.7075 0.7075 0.7067 -202.2159 -201.9048)" class="st10" width="7.5" height="608.6"/>
					
						<rect x="-313.3" y="-196.5" transform="matrix(0.7075 -0.7067 0.7067 0.7075 -166.7615 -187.2083)" class="st10" width="7.5" height="608.6"/>
					
						<rect x="-278.2" y="-231.6" transform="matrix(0.7071 -0.7071 0.7071 0.7071 -131.8108 -172.7406)" class="st10" width="7.5" height="608.6"/>
					
						<rect x="-243.1" y="-266.7" transform="matrix(0.7067 -0.7075 0.7075 0.7067 -96.8069 -158.2769)" class="st10" width="7.5" height="608.6"/>
					
						<rect x="-208" y="-301.8" transform="matrix(0.7075 -0.7067 0.7067 0.7075 -61.5129 -143.5804)" class="st10" width="7.5" height="608.6"/>
					
						<rect x="-172.9" y="-336.9" transform="matrix(0.7067 -0.7075 0.7075 0.7067 -26.5408 -129.2013)" class="st10" width="7.5" height="608.6"/>
					
						<rect x="-137.9" y="-371.9" transform="matrix(0.7067 -0.7075 0.7075 0.7067 8.4823 -114.7067)" class="st10" width="7.5" height="608.6"/>
					
						<rect x="-102.7" y="-407" transform="matrix(0.7075 -0.7067 0.7067 0.7075 43.6189 -99.9883)" class="st10" width="7.5" height="608.6"/>
					
						<rect x="-67.6" y="-442.1" transform="matrix(0.7067 -0.7075 0.7075 0.7067 78.7578 -85.6104)" class="st10" width="7.5" height="608.6"/>
					
						<rect x="-32.5" y="-477.2" transform="matrix(0.7075 -0.7067 0.7067 0.7075 113.7838 -70.9141)" class="st10" width="7.5" height="608.6"/>
					
						<rect x="2.6" y="-512.3" transform="matrix(0.7072 -0.7071 0.7071 0.7072 148.9384 -56.4365)" class="st10" width="7.5" height="608.6"/>
					
						<rect x="37.7" y="-547.5" transform="matrix(0.7067 -0.7075 0.7075 0.7067 184.1685 -41.9813)" class="st10" width="7.5" height="608.6"/>
				</g>
			</g>
		</g>
	</g>
</g>
</svg>
