<?xml version="1.0" encoding="utf-8"?>
<!-- Generator: Adobe Illustrator 23.0.1, SVG Export Plug-In . SVG Version: 6.00 Build 0)  -->
<svg version="1.1" id="Capa_1" xmlns="http://www.w3.org/2000/svg" xmlns:xlink="http://www.w3.org/1999/xlink" x="0px" y="0px"
	 viewBox="0 0 1200 800" style="enable-background:new 0 0 1200 800;" xml:space="preserve">
<style type="text/css">
	.st0{display:none;fill:#CCCCCC;}
	.st1{fill:#9E8683;}
	.st2{fill:#E5CCC1;}
	.st3{fill:#B3B3B3;}
	.st4{fill:#CCCCCC;}
	.st5{fill:#FFFFFF;}
	.st6{opacity:0.3;fill:#FFFFFF;enable-background:new    ;}
	.st7{opacity:0.08;fill:#FFFFFF;enable-background:new    ;}
	.st8{opacity:0.6;fill:#FFFFFF;enable-background:new    ;}
	.st9{fill:#F2D9CC;}
	.st10{opacity:6.000000e-02;fill:#26221D;enable-background:new    ;}
</style>
<rect class="st0" width="1200" height="800"/>
<g id="mano_fondo">
	<path class="st1" d="M347,574.1l103.9-44.3c29,20.9,172.9,137.3,175.2,150.2c0,0,28.5-8.9,28.7-16.9c0.2-8.1-35.6-87.8-35.6-87.8
		l58-4.8c0,0,34.2,76.5,44.7,87c10.5,10.5,217.4,76.9,217.4,76.9l-299.5,14.1L347,574.1z"/>
	<path class="st2" d="M342.2,593.4l-75.7-57.1c-28.2-22.7,35-45.1,81.3-12.1L342.2,593.4z"/>
</g>
<g id="bola">
	<path class="st3" d="M290.1,481.9v47c0,34.1,139.4,61.7,311.3,61.7s311.3-27.6,311.3-61.7v-47L290.1,481.9L290.1,481.9z"/>
	<ellipse class="st4" cx="601.4" cy="481.5" rx="311.3" ry="59.2"/>
	<path class="st5" d="M601.4,513.6c-73.9,0-144-4.7-197.5-13.1c-25.7-4.1-46.2-8.8-61-14c-16.5-5.8-20.3-10.5-21-11.6
		c0.7-1.1,4.5-5.8,21-11.6c14.8-5.2,35.3-10,61-14c53.4-8.5,123.6-13.1,197.5-13.1c73.9,0,144,4.7,197.5,13.1
		c25.7,4.1,46.2,8.8,61,14c16.5,5.8,20.3,10.5,21,11.6c-0.7,1.1-4.5,5.8-21,11.6c-14.8,5.2-35.3,10-61,14
		C745.4,509,675.3,513.6,601.4,513.6z"/>
	<path class="st6" d="M601.4,26c-159.6,0-289,129.4-289,289v160.6h0.1c2.3,26.3,130.8,47.5,288.9,47.5
		c158.1,0,286.6-21.2,288.9-47.5h0.1V315C890.4,155.4,761,26,601.4,26z"/>
	<path class="st7" d="M601.4,26c-159.6,0-289,129.4-289,289v160.6h0.1c2.3,26.3,130.8,47.5,288.9,47.5
		c158.1,0,286.6-21.2,288.9-47.5h0.1V315C890.4,155.4,761,26,601.4,26z"/>
	<ellipse class="st8" cx="601.4" cy="72" rx="126.9" ry="21.2"/>
</g>
<g id="mano_delante">
	<path class="st9" d="M924.8,943c0,0-34.7-69-141.8-85.1c0,0-155.4-8.9-186-31.4L307.5,592.2c-21.3-19.1,2.2-30.9,33.4-29.5
		c21.8,1,17.9,5.2,43.6,10.6c44.3,25,263.2,152.6,263.2,152.6c11.3,5.6,164.3,1.6,164.3,1.6c12.9-1.6,24.2-10.5,0.1-59.2
		c-28.3-53.2-95.2-118.7-12.3-135c52.5-10.3,69.9,84.7,82.1,105.6c12.2,20.9,98.4,82.1,113.7,119.2c15.3,37,157.2,184.9,157.2,184.9
		H924.8z"/>
	<path id="sombra_2_" class="st10" d="M995.6,758.1c-17-33-62.5-68.9-92.9-96.9c-12.8-11.8-21.5-21.7-27.5-38.2
		c-9-24.7-16.9-51.4-33.9-72c-6.6,6.4-13.6,12.6-21.2,17.6c-4.3,2.9-11.2,4.3-14.9,7.9c-3.5,3.5,12.4,7,13.9,7.4
		c33.5,9-6.4,15.2,3.9,33.2c17.8,31,40,59,63.9,85.5c19,21.2,42.3,42.2,56.1,67.5c10.2,18.8,16.7,47.2,13.7,68.7
		c-1.7,12.3-29.7-8.7-34.5-11.7c-19-12.1-38-25.3-54.4-40.7c-20.9-19.5-32.7-52.1-41.7-78.5c2.4,23.3-13.6,18.6-41.3,20.3
		c0,0-88.9,1.4-122.3-0.2c48.9,10.9,98.1,21.6,146.3,35.5c6.4,1.8,15,3.2,20.5,7.2c2.4,1.7-13.4,6.5-14.7,6.9
		c-36,10.6-74.6,15.5-112.1,14.7c-32.8-0.7-67.2-6.1-95.2-24.1c-19.1-12.3-37.9-25.3-56.6-38.1c-53.7-36.7-107.2-73.9-160.7-111
		c-17.3-12-62.7-54.3-82.3-26.5c35.6,28.8,71.2,57.6,106.7,86.4c48.7,39.4,97.4,78.8,146,118.2c9.4,7.6,18.7,15.1,28.1,22.7
		c18.2,14.8,40,18.6,62.5,23.6c88.4,19.8,175.4-0.8,250.2,70.5c9,8.6,17.2,18.5,23.6,29.2h228c-16.5-17.3-78.2-83.8-93.9-101.8
		C1037.9,817.1,1013.5,792.8,995.6,758.1z"/>
</g>
</svg>
