<?xml version="1.0" encoding="utf-8"?>
<!-- Generator: Adobe Illustrator 23.0.1, SVG Export Plug-In . SVG Version: 6.00 Build 0)  -->
<svg version="1.1" id="Capa_1" xmlns="http://www.w3.org/2000/svg" xmlns:xlink="http://www.w3.org/1999/xlink" x="0px" y="0px"
	 viewBox="0 0 164.3 427.7" style="enable-background:new 0 0 164.3 427.7;" xml:space="preserve">
<style type="text/css">
	.st0{fill:#8E877C;}
	.st1{fill:#847674;}
</style>
<path class="st0" d="M875.2,81.6c0,18.5-32.1,153.8-29.2,159.6c2.9,5.8,16.5,23.4,23.4,25.3c6.8,1.9,59.4-5.8,65.2,0
	c5.8,5.8,1.9,49.6,4.9,55.5c2.9,5.8,27.2,9.7,27.2,9.7s-22.4,10.7-11.7,22.4c10.7,11.7,42.8,30.2,42.8,43.8c0,6.5,0.5,13.5,2.2,20.6
	V0H841.4C852.6,21.9,875.2,67.7,875.2,81.6z"/>
<path class="st1" d="M39.5,81.6c0,18.5-32.1,153.8-29.2,159.6c2.9,5.8,16.5,23.4,23.4,25.3c6.8,1.9,59.4-5.8,65.2,0
	c5.8,5.8,1.9,49.6,4.9,55.5c2.9,5.8,27.2,9.7,27.2,9.7s-22.4,10.7-11.7,22.4c10.7,11.7,42.8,30.2,42.8,43.8c0,6.5,0.5,13.5,2.2,20.6
	V0H5.7C16.9,21.9,39.5,67.7,39.5,81.6z"/>
</svg>
